# xmcd CD database file
#
# Track frame offsets:
#	150
#	23725
#	46772
#	76902
#	99647
#	130200
#	162127
#	187667
#	216707
#	237567
#
# Disc length: 3489 seconds
#
# Revision: 0
# Processed by: cddbd v1.5.2PL0 Copyright (c) Steve Scherf et al.
# Submitted via: CDex 1.70beta2
#
DISCID=7d0d9f0a
DTITLE=George Benson - 224 - Live
DYEAR=1990
DGENRE=Jazz
TTITLE0=Blue Bossa
TTITLE1=I'm afraid of the masquerade
TTITLE2=All blues
TTITLE3=Love for sale
TTITLE4=Oleo
TTITLE5=There will never be another you
TTITLE6=Lill Darlin
TTITLE7=Love walked in
TTITLE8=All the Things are you
TTITLE9=Darlings Delight
EXTD=YEAR: 1990
EXTT0=
EXTT1=
EXTT2=
EXTT3=
EXTT4=
EXTT5=
EXTT6=
EXTT7=
EXTT8=
EXTT9=
PLAYORDER=
